{
  "accessors": [
    {
      "name": "Part12_1_0_positions",
      "componentType": 5126,
      "count": 492,
      "min": [
        -0.644599974155426,
        0,
        -0.6347500085830688
      ],
      "max": [
        0.644599974155426,
        0.8798369765281677,
        0.6347500085830688
      ],
      "type": "VEC3",
      "bufferView": 0,
      "byteOffset": 0
    },
    {
      "name": "Part12_1_0_normals",
      "componentType": 5126,
      "count": 492,
      "min": [
        -0.9852488040924072,
        -1,
        -1
      ],
      "max": [
        0.9852485656738281,
        1,
        1
      ],
      "type": "VEC3",
      "bufferView": 1,
      "byteOffset": 0
    },
    {
      "name": "Part12_1_0_texcoords",
      "componentType": 5126,
      "count": 492,
      "min": [
        0,
        0.004335999954491854
      ],
      "max": [
        1,
        1
      ],
      "type": "VEC2",
      "bufferView": 2,
      "byteOffset": 0
    },
    {
      "name": "Part12_1_0_indices",
      "componentType": 5123,
      "count": 492,
      "min": [
        0
      ],
      "max": [
        491
      ],
      "type": "SCALAR",
      "bufferView": 3,
      "byteOffset": 0
    }
  ],
  "asset": {
    "generator": "obj2gltf",
    "version": "2.0"
  },
  "buffers": [
    {
      "name": "domino_crown",
      "byteLength": 16728,
      "uri": "data:application/octet-stream;base64,"
    }
  ],
  "bufferViews": [
    {
      "name": "bufferView_0",
      "buffer": 0,
      "byteLength": 5904,
      "byteOffset": 0,
      "byteStride": 12,
      "target": 34962
    },
    {
      "name": "bufferView_1",
      "buffer": 0,
      "byteLength": 5904,
      "byteOffset": 5904,
      "byteStride": 12,
      "target": 34962
    },
    {
      "name": "bufferView_2",
      "buffer": 0,
      "byteLength": 3936,
      "byteOffset": 11808,
      "byteStride": 8,
      "target": 34962
    },
    {
      "name": "bufferView_3",
      "buffer": 0,
      "byteLength": 984,
      "byteOffset": 15744,
      "target": 34963
    }
  ],
  "materials": [
    {
      "name": "Part1Mtl",
      "pbrMetallicRoughness": {
        "baseColorFactor": [
          0.5,
          0.5,
          0.5,
          1
        ],
        "metallicFactor": 0,
        "roughnessFactor": 1
      },
      "emissiveFactor": [
        0,
        0,
        0
      ],
      "alphaMode": "OPAQUE",
      "doubleSided": false
    }
  ],
  "meshes": [
    {
      "name": "Part12_1",
      "primitives": [
        {
          "attributes": {
            "POSITION": 0,
            "NORMAL": 1,
            "TEXCOORD_0": 2
          },
          "indices": 3,
          "material": 0,
          "mode": 4
        }
      ]
    }
  ],
  "nodes": [
    {
      "name": "Part12",
      "mesh": 0
    }
  ],
  "scene": 0,
  "scenes": [
    {
      "nodes": [
        0
      ]
    }
  ]
}
